<?xml version="1.0" encoding="utf-8"?>
<!-- Generator: Adobe Illustrator 23.0.1, SVG Export Plug-In . SVG Version: 6.00 Build 0)  -->
<svg version="1.1" xmlns="http://www.w3.org/2000/svg" xmlns:xlink="http://www.w3.org/1999/xlink" x="0px" y="0px"
	 viewBox="0 0 1417.3 1417.3" style="enable-background:new 0 0 1417.3 1417.3;" xml:space="preserve">
<style type="text/css">
	.st0{fill:#1B1B32;}
	.st1{fill:none;stroke:#E3CAE8;stroke-width:3;stroke-linecap:round;stroke-linejoin:round;stroke-miterlimit:10;}
	.st2{fill:none;stroke:#A0E5F1;stroke-width:3;stroke-miterlimit:10;}
	.st3{fill:none;stroke:#B4C9FB;stroke-width:3;stroke-linecap:round;stroke-linejoin:round;stroke-miterlimit:10;}
	.st4{fill:none;stroke:#C0F7CA;stroke-width:3;stroke-linecap:round;stroke-linejoin:round;stroke-miterlimit:10;}
	.st5{fill:none;stroke:#C0F7CA;stroke-width:3;stroke-linejoin:round;stroke-miterlimit:10;}
	.st6{fill:none;stroke:#FFB8C3;stroke-width:3;stroke-linecap:round;stroke-linejoin:round;stroke-miterlimit:10;}
	.st7{fill:none;stroke:#A0E5F1;stroke-width:3;stroke-linecap:round;stroke-linejoin:round;stroke-miterlimit:10;}
	.st8{fill:none;stroke:#C9F0F7;stroke-width:3;stroke-linecap:round;stroke-linejoin:round;stroke-miterlimit:10;}
	.st9{fill:none;stroke:#FFB8C3;stroke-width:3;stroke-linejoin:round;stroke-miterlimit:10;}
	.st10{fill:none;stroke:#E3CAE8;stroke-width:3;stroke-linejoin:round;stroke-miterlimit:10;}
</style>
<g id="Layer_2">
	<rect x="-2.3" class="st0" width="1419.7" height="1417.3"/>
</g>
<g id="Layer_1">
	<g>
		<g>
			<g>
				<path class="st1" d="M189.1,102.1c2.6,17.6-19.6,35.4-49.6,39.8c-30,4.4-56.3-6.4-58.9-23.9L189.1,102.1z"/>
				<path class="st1" d="M90.1,126.2c-1.3-1.3-2.3-2.7-3.1-4.2"/>
				<path class="st1" d="M121.7,137.8c-11.8-0.7-22.1-4-28.7-9"/>
				<polyline class="st1" points="124.1,207.3 148.6,203.7 139.5,141.9 				"/>
				<line class="st1" x1="148.6" y1="203.7" x2="173" y2="200.2"/>
			</g>
			<g>
				<path class="st2" d="M446.4,68.7c0,0,6.1,77.2-22.4,73c-28.6-4.2-0.4-76.3-0.4-76.3L446.4,68.7z"/>
				<path class="st2" d="M425.7,74c0.4-1.2,0.8-2.3,1.1-3.3"/>
				<path class="st2" d="M416.4,113.1c0.5-5.5,1.6-11.7,3.3-18.7c1.5-6.2,3.2-12.1,4.8-16.8"/>
				<polyline class="st2" points="424,141.6 415.4,200.2 428.4,202.1 				"/>
				<path class="st2" d="M404.3,183.7"/>
				<line class="st2" x1="402.3" y1="198.3" x2="415.4" y2="200.2"/>
			</g>
			<g>
				<path class="st3" d="M759.6,188.3l-8.6,9.4c-2.3,2.5-6.1,2.7-8.6,0.4l-45.8-41.9c-4.7-4.3-8.5-9.6-11.1-15.4l-5.9-13.1
					c-2.6-5.9-6.4-11.1-11.1-15.4l-8.1-7.4c-0.8-0.8-2.1-0.7-2.9,0.1l0,0c-0.8,0.8-2,0.9-2.9,0.1v0c-1.8-1.6-1.9-4.3-0.3-6.1
					l3.4-3.8l3.4-3.8c1.6-1.8,4.3-1.9,6.1-0.3l0,0c0.8,0.8,0.9,2,0.1,2.9l0,0c-0.8,0.8-0.7,2.1,0.1,2.9l8.1,7.4
					c4.7,4.3,10.3,7.6,16.4,9.7l13.6,4.7c6.1,2.1,11.6,5.4,16.4,9.7l45.8,41.9c2.5,2.3,2.7,6.1,0.4,8.6L759.6,188.3z"/>
				<line class="st3" x1="685.6" y1="129.1" x2="684" y2="125.6"/>
				<path class="st3" d="M717.8,169l-18-16.4c-4.3-3.9-7.6-8.6-10-13.8l-2.3-5.2"/>
			</g>
			<g>
				<path class="st4" d="M1001.6,94.1l38.1,83.4c1.1,2.4,0.2,5.2-2,6.5l-13.5,8.3l-13.5,8.3c-2.2,1.4-5.1,0.9-6.7-1.1l-57.6-71.3
					L1001.6,94.1z"/>
				<line class="st4" x1="980.9" y1="163" x2="978.8" y2="160.4"/>
				<path class="st4" d="M1015.5,192l-5.4,3.4c-1.1,0.7-2.6,0.5-3.5-0.6l-23.5-29.1"/>
				<polyline class="st5" points="995,98.3 984,62.7 987.6,61.7 998.6,97.2 				"/>
			</g>
			<g>
				<path class="st6" d="M1254.7,88.9l68.1,26.7c1.1,0.4,1.1,2,0,2.5l-47.8,19.3l-22-46.7C1252.5,89.6,1253.6,88.5,1254.7,88.9z"/>
				<line class="st6" x1="1263" y1="100.3" x2="1261.3" y2="96.7"/>
				<line class="st6" x1="1275.3" y1="126.5" x2="1264.7" y2="104"/>
				<line class="st6" x1="1275" y1="137.4" x2="1257.8" y2="181.2"/>
				<line class="st6" x1="1241.2" y1="174.7" x2="1274.4" y2="187.7"/>
			</g>
		</g>
		<g>
			<g>
				<path class="st7" d="M781.4,397.7c-5.2,17-32.9,23.5-61.9,14.6c-28.9-8.9-48.1-30-42.9-46.9L781.4,397.7z"/>
				<path class="st7" d="M681.7,376.9c-0.6-1.7-0.9-3.5-0.9-5.1"/>
				<path class="st7" d="M705.2,401c-10.4-5.7-18.2-13.1-22-20.5"/>
				<polyline class="st7" points="677.5,464.7 701.1,472 719.6,412.3 				"/>
				<line class="st7" x1="701.1" y1="472" x2="724.7" y2="479.3"/>
			</g>
			<g>
				<path class="st1" d="M986.2,354.1c0,0,34.2,69.4,6.1,76.1s-28.6-70.8-28.6-70.8L986.2,354.1z"/>
				<path class="st1" d="M968.9,366.7c-0.1-1.3-0.1-2.5-0.2-3.4"/>
				<path class="st1" d="M974.8,406.5c-1.5-5.3-2.9-11.5-3.9-18.6c-0.9-6.3-1.5-12.4-1.8-17.3"/>
				<polyline class="st1" points="992.4,430.2 1006,487.8 1018.8,484.8 				"/>
				<path class="st1" d="M989.6,476.6"/>
				<line class="st1" x1="993.2" y1="490.8" x2="1006" y2="487.8"/>
			</g>
			<g>
				<path class="st8" d="M116.1,488.8l-12.1-4c-3.2-1.1-4.9-4.5-3.8-7.7l19.7-58.9c2-6.1,5.3-11.7,9.6-16.5l9.6-10.7
					c4.3-4.8,7.6-10.4,9.6-16.5l3.5-10.4c0.4-1.1-0.2-2.2-1.3-2.6l0,0c-1.1-0.4-1.6-1.5-1.3-2.6l0,0c0.8-2.3,3.2-3.5,5.5-2.7
					l4.8,1.6l4.8,1.6c2.3,0.8,3.5,3.2,2.7,5.5v0c-0.4,1.1-1.5,1.6-2.6,1.3l0,0c-1.1-0.4-2.2,0.2-2.6,1.3l-3.5,10.4
					c-2,6.1-2.8,12.5-2.2,18.9l1.2,14.3c0.6,6.4-0.2,12.8-2.2,18.9L135.9,489c-1.1,3.2-4.5,4.9-7.7,3.8L116.1,488.8z"/>
				<line class="st8" x1="140.2" y1="397.2" x2="142.8" y2="394.3"/>
				<path class="st8" d="M116.8,442.8l7.7-23.1c1.8-5.5,4.7-10.4,8.6-14.7l3.8-4.2"/>
			</g>
			<g>
				<path class="st4" d="M1306.2,393.6l-26.4,87.8c-0.7,2.5-3.2,4-5.8,3.6l-15.6-2.6l-15.6-2.6c-2.6-0.4-4.4-2.7-4.3-5.3l3.7-91.6
					L1306.2,393.6z"/>
				<line class="st4" x1="1245.2" y1="431.8" x2="1245.3" y2="428.5"/>
				<path class="st4" d="M1252,476.4l-6.3-1.1c-1.3-0.2-2.3-1.4-2.2-2.7l1.5-37.3"/>
				<polyline class="st5" points="1298.5,392.5 1313.7,358.5 1317,360 1301.8,394 				"/>
			</g>
			<g>
				<path class="st6" d="M387.1,386.9l73-4.3c1.2-0.1,1.9,1.4,1,2.2l-35.4,37.6l-39.5-33.2C385.4,388.5,385.9,387,387.1,386.9z"/>
				<line class="st6" x1="399.4" y1="393.8" x2="396.3" y2="391.3"/>
				<line class="st6" x1="421.5" y1="412.5" x2="402.5" y2="396.5"/>
				<line class="st6" x1="425.8" y1="422.5" x2="428.5" y2="469.5"/>
				<line class="st6" x1="410.8" y1="470.5" x2="446.3" y2="468.4"/>
			</g>
		</g>
		<g>
			<g>
				<path class="st1" d="M491.6,714.4c-12,13.1-39.8,7.3-62.2-13.1c-22.4-20.4-30.8-47.5-18.9-60.7L491.6,714.4z"/>
				<path class="st1" d="M410.1,653.1c0.2-1.8,0.7-3.5,1.3-5.1"/>
				<path class="st1" d="M421.2,684.9c-7-9.6-11-19.6-11.2-27.9"/>
				<polyline class="st1" points="369,730.9 387.3,747.5 429.4,701.3 				"/>
				<line class="st1" x1="387.3" y1="747.5" x2="405.6" y2="764.2"/>
			</g>
			<g>
				<path class="st3" d="M1318.9,655.4c0,0-23.3,73.8-48.2,59.2c-24.9-14.6,28.3-70.9,28.3-70.9L1318.9,655.4z"/>
				<path class="st3" d="M1297.6,652.6c0.8-1,1.6-1.9,2.3-2.6"/>
				<path class="st3" d="M1274.4,685.3c2.5-4.9,5.9-10.3,10-16.1c3.7-5.2,7.5-10,10.7-13.7"/>
				<polyline class="st3" points="1270.7,714.6 1240.7,765.7 1252.1,772.4 				"/>
				<path class="st3" d="M1236.6,746.2"/>
				<line class="st3" x1="1229.3" y1="759" x2="1240.7" y2="765.7"/>
			</g>
			<g>
				<path class="st6" d="M180.3,672.6l-43.8,80.6c-1.2,2.3-4,3.3-6.4,2.3l-14.7-5.7l-14.7-5.7c-2.4-0.9-3.8-3.5-3.1-6.1l22.4-88.9
					L180.3,672.6z"/>
				<line class="st6" x1="112.8" y1="697.5" x2="113.6" y2="694.3"/>
				<path class="st6" d="M110.4,742.6l-5.9-2.3c-1.3-0.5-1.9-1.8-1.6-3.1l9.1-36.2"/>
				<polyline class="st9" points="172.9,669.9 194.7,639.7 197.7,641.9 175.9,672.1 				"/>
			</g>
			<g>
				<path class="st1" d="M1013.5,769l-11.5,5.4c-3,1.4-6.7,0.1-8.1-2.9l-26.6-56.1c-2.7-5.8-4.3-12.1-4.5-18.5l-0.5-14.4
					c-0.2-6.4-1.7-12.7-4.5-18.5l-4.7-9.9c-0.5-1-1.7-1.4-2.7-1l0,0c-1,0.5-2.2,0-2.7-1l0,0c-1-2.2-0.1-4.7,2.1-5.8l4.6-2.2l4.6-2.2
					c2.2-1,4.7-0.1,5.8,2.1l0,0c0.5,1,0,2.2-1,2.7l0,0c-1,0.5-1.4,1.7-1,2.7l4.7,9.9c2.7,5.8,6.7,11,11.5,15.2l10.8,9.5
					c4.8,4.2,8.7,9.4,11.5,15.2l26.6,56.1c1.4,3,0.1,6.7-2.9,8.1L1013.5,769z"/>
				<line class="st1" x1="967.3" y1="686.2" x2="967.2" y2="682.3"/>
				<path class="st1" d="M982.1,735.3l-10.4-22c-2.5-5.2-3.8-10.8-4-16.6l-0.2-5.7"/>
			</g>
			<g>
				<path class="st4" d="M669,666.7l73.1-4c1.2-0.1,1.9,1.4,1,2.2l-35.5,37.4L668.2,669C667.3,668.3,667.8,666.8,669,666.7z"/>
				<line class="st4" x1="681.2" y1="673.7" x2="678.2" y2="671.1"/>
				<line class="st4" x1="703.3" y1="692.4" x2="684.4" y2="676.3"/>
				<line class="st4" x1="707.6" y1="702.4" x2="710.1" y2="749.4"/>
				<line class="st4" x1="692.4" y1="750.4" x2="727.9" y2="748.4"/>
			</g>
		</g>
		<g>
			<g>
				<path class="st7" d="M141.8,1198.3c0,0,31.4,70.8,3,76.3c-28.3,5.5-25.7-71.9-25.7-71.9L141.8,1198.3z"/>
				<path class="st7" d="M123.9,1210.2c0-1.3,0-2.5,0-3.5"/>
				<path class="st7" d="M128.2,1250.2c-1.3-5.3-2.4-11.6-3.1-18.7c-0.6-6.4-0.9-12.5-1.1-17.4"/>
				<polyline class="st7" points="144.8,1274.6 156.1,1332.7 169,1330.2 				"/>
				<path class="st7" d="M140.1,1320.8"/>
				<line class="st7" x1="143.1" y1="1335.2" x2="156.1" y2="1332.7"/>
			</g>
			<g>
				<path class="st6" d="M438.5,1338.4l-12.5,2.2c-3.3,0.6-6.5-1.6-7.1-4.9l-10.8-61.2c-1.1-6.3-0.9-12.8,0.6-19l3.3-14
					c1.5-6.2,1.7-12.7,0.6-19l-1.9-10.8c-0.2-1.1-1.2-1.8-2.4-1.6l0,0c-1.1,0.2-2.2-0.5-2.4-1.6l0,0c-0.4-2.4,1.2-4.6,3.5-5l5-0.9
					l5-0.9c2.4-0.4,4.6,1.2,5,3.5l0,0c0.2,1.1-0.5,2.2-1.6,2.4l0,0c-1.1,0.2-1.8,1.2-1.6,2.4l1.9,10.8c1.1,6.3,3.5,12.3,7.1,17.7
					l7.9,12c3.5,5.4,5.9,11.4,7.1,17.7l10.8,61.2c0.6,3.3-1.6,6.5-4.9,7.1L438.5,1338.4z"/>
				<line class="st6" x1="415.9" y1="1246.4" x2="416.8" y2="1242.6"/>
				<path class="st6" d="M417.1,1297.6l-4.2-24c-1-5.7-0.8-11.4,0.5-17l1.3-5.5"/>
			</g>
			<g>
				<path class="st4" d="M1343,1262.5c-7.5,16.1-35.9,18.7-63.3,5.9c-27.4-12.8-43.5-36.3-36-52.4L1343,1262.5z"/>
				<path class="st4" d="M1247.1,1228.1c-0.3-1.8-0.4-3.6-0.2-5.2"/>
				<path class="st4" d="M1267,1255.1c-9.5-7.1-16.3-15.5-19-23.3"/>
				<polyline class="st4" points="1230.8,1314.5 1253.2,1324.9 1279.7,1268.4 				"/>
				<line class="st4" x1="1253.2" y1="1324.9" x2="1275.6" y2="1335.4"/>
			</g>
			<g>
				<path class="st1" d="M732.4,1222.1l7,91.4c0.2,2.6-1.6,4.9-4.1,5.4l-15.5,3.2l-15.5,3.2c-2.5,0.5-5.1-0.9-5.9-3.4l-29.6-86.8
					L732.4,1222.1z"/>
				<line class="st1" x1="689.2" y1="1279.7" x2="688.2" y2="1276.6"/>
				<path class="st1" d="M711.7,1318.8l-6.2,1.3c-1.3,0.3-2.6-0.5-3.1-1.8l-12-35.4"/>
				<polyline class="st10" points="724.8,1223.9 726.7,1186.7 730.3,1186.9 728.4,1224 				"/>
			</g>
			<g>
				<path class="st3" d="M960.1,1223l73.1-4c1.2-0.1,1.9,1.4,1,2.2l-35.5,37.4l-39.4-33.4C958.4,1224.5,958.9,1223,960.1,1223z"/>
				<line class="st3" x1="972.3" y1="1229.9" x2="969.3" y2="1227.4"/>
				<line class="st3" x1="994.4" y1="1248.6" x2="975.4" y2="1232.6"/>
				<line class="st3" x1="998.6" y1="1258.7" x2="1001.2" y2="1305.7"/>
				<line class="st3" x1="983.4" y1="1306.6" x2="1019" y2="1304.7"/>
			</g>
		</g>
		<g>
			<g>
				<path class="st4" d="M694.7,912.8c0,0,39,66.9,11.5,75.5c-27.6,8.6-33.5-68.6-33.5-68.6L694.7,912.8z"/>
				<path class="st4" d="M678.3,926.6c-0.2-1.3-0.3-2.4-0.4-3.4"/>
				<path class="st4" d="M687,965.8c-1.9-5.1-3.7-11.3-5.2-18.2c-1.4-6.3-2.3-12.3-3-17.2"/>
				<polyline class="st4" points="706.2,988.3 723.8,1044.8 736.4,1040.8 				"/>
				<path class="st4" d="M706.7,1034.7"/>
				<line class="st4" x1="711.2" y1="1048.7" x2="723.8" y2="1044.8"/>
			</g>
			<g>
				<path class="st7" d="M1062.7,942.4c-2.8,17.6-29.3,27.9-59.2,23.2c-29.9-4.8-51.9-22.9-49-40.4L1062.7,942.4z"/>
				<path class="st7" d="M961,935.9c-0.8-1.6-1.4-3.3-1.7-5"/>
				<path class="st7" d="M987.7,956.4c-11.1-4.2-19.9-10.4-24.7-17.2"/>
				<polyline class="st7" points="969.2,1023.4 993.7,1027.3 1003.5,965.6 				"/>
				<line class="st7" x1="993.7" y1="1027.3" x2="1018.1" y2="1031.2"/>
			</g>
			<g>
				<path class="st6" d="M1298.4,1063.7l-12,4c-3.2,1.1-6.7-0.6-7.7-3.8l-19.8-58.9c-2-6.1-2.8-12.5-2.3-18.9l1.2-14.3
					c0.5-6.4-0.2-12.8-2.3-18.9l-3.5-10.4c-0.4-1.1-1.5-1.6-2.6-1.3l0,0c-1.1,0.4-2.2-0.2-2.6-1.3l0,0c-0.8-2.3,0.5-4.7,2.7-5.5
					l4.8-1.6l4.8-1.6c2.3-0.8,4.7,0.5,5.5,2.7l0,0c0.4,1.1-0.2,2.2-1.3,2.6l0,0c-1.1,0.4-1.6,1.5-1.3,2.6l3.5,10.4
					c2,6.1,5.3,11.7,9.6,16.4l9.6,10.7c4.3,4.8,7.6,10.4,9.6,16.4l19.8,58.9c1.1,3.2-0.6,6.7-3.8,7.7L1298.4,1063.7z"/>
				<line class="st6" x1="1262.3" y1="976.1" x2="1262.7" y2="972.2"/>
				<path class="st6" d="M1271.2,1026.5l-7.7-23.1c-1.8-5.5-2.5-11.2-2-16.9l0.5-5.7"/>
			</g>
			<g>
				<path class="st1" d="M449.9,959.2l-18.1,89.9c-0.5,2.5-2.8,4.3-5.4,4.1l-15.8-1.2l-15.8-1.2c-2.6-0.2-4.6-2.3-4.8-4.9l-4.8-91.6
					L449.9,959.2z"/>
				<line class="st1" x1="392.7" y1="1002.9" x2="392.5" y2="999.6"/>
				<path class="st1" d="M403.7,1046.7l-6.4-0.5c-1.3-0.1-2.4-1.2-2.5-2.5l-2-37.3"/>
				<polyline class="st10" points="442.1,958.8 454,923.5 457.5,924.7 445.6,960 				"/>
			</g>
			<g>
				<path class="st4" d="M88,983.6l59.6-42.4c1-0.7,2.3,0.2,2.1,1.3l-10,50.6L88.6,986C87.4,985.8,87,984.3,88,983.6z"/>
				<line class="st4" x1="102.1" y1="982.9" x2="98.2" y2="982.4"/>
				<line class="st4" x1="130.7" y1="986.9" x2="106.1" y2="983.5"/>
				<line class="st4" x1="139.7" y1="993.1" x2="167" y2="1031.5"/>
				<line class="st4" x1="152.5" y1="1041.8" x2="181.5" y2="1021.2"/>
			</g>
		</g>
	</g>
</g>
</svg>
