<?xml version="1.0" encoding="utf-8"?>
<!-- Generator: Adobe Illustrator 23.0.1, SVG Export Plug-In . SVG Version: 6.00 Build 0)  -->
<svg version="1.1" id="Layer_1" xmlns="http://www.w3.org/2000/svg" xmlns:xlink="http://www.w3.org/1999/xlink" x="0px" y="0px"
	 viewBox="0 0 344.7 1417.3" style="enable-background:new 0 0 344.7 1417.3;" xml:space="preserve">
<style type="text/css">
	.st0{fill:#FAFAFA;}
</style>
<g>
	<path class="st0" d="M249.2,1417.3H95.5c-52.6,0-95.5-42.8-95.5-95.5V674.5c0-34.9,9.1-69.4,26.4-99.8l13.6-23.9
		c13.1-23,21.3-48,24.3-74.4L112,124.3c-3-1.4-5.7-3.4-7.9-6c-4.2-5.1-5.8-11.7-4.5-18.1l8.3-41.8C101.5,55.6,97,49.3,97,42v-9.1
		C97,14.8,111.8,0,129.9,0h84.8c18.2,0,32.9,14.8,32.9,32.9V42c0,7.3-4.5,13.7-10.9,16.3l8.3,41.8c1.3,6.4-0.4,13-4.5,18.1
		c-2.2,2.6-4.9,4.7-7.9,6l47.7,351.9c3,26.6,11.2,51.6,24.3,74.6l13.6,23.9c17.3,30.3,26.4,64.8,26.4,99.8v647.4
		C344.7,1374.5,301.9,1417.3,249.2,1417.3z M123,102.9c3.6,0.5,7,2.2,9.5,5c2.9,3.3,4.3,7.6,3.8,12L87.6,479.3
		c-3.3,29.3-12.5,57.3-27.2,83.1l-13.6,23.9c-15.3,26.8-23.4,57.3-23.4,88.1v647.4c0,39.7,32.3,72,72,72h153.8c39.7,0,72-32.3,72-72
		V674.5c0-30.9-8.1-61.3-23.4-88.1l-13.6-23.9c-14.7-25.8-23.9-53.8-27.2-83.4l-48.6-359c-0.5-4.6,0.9-9,3.8-12.2
		c2.5-2.8,5.9-4.5,9.5-5l-9-45.5c-1-5.2,0.3-10.6,3.7-14.7c2.1-2.6,4.8-4.4,7.9-5.5v-4.2c0-5.2-4.2-9.5-9.5-9.5h-84.8
		c-5.2,0-9.5,4.2-9.5,9.5v4.2c3,1.1,5.8,2.9,7.9,5.5c3.4,4.1,4.7,9.4,3.7,14.7L123,102.9z"/>
</g>
<g>
	<path class="st0" d="M135.1,344.8c-0.5,0-1.1,0-1.6-0.1c-6.4-0.9-10.9-6.8-10.1-13.2l6.5-47.7c0.9-6.4,6.8-10.9,13.2-10.1
		c6.4,0.9,10.9,6.8,10.1,13.2l-6.5,47.7C145.9,340.6,140.8,344.8,135.1,344.8z"/>
</g>
<g>
	<path class="st0" d="M98.2,559c-1.5,0-3-0.3-4.4-0.9c-6-2.5-8.9-9.3-6.4-15.3c8-19.6,13.3-40.3,15.8-61.6l15.2-112.1
		c0.9-6.4,6.8-10.9,13.2-10.1c6.4,0.9,10.9,6.8,10.1,13.2l-15.2,111.9c-2.7,23.2-8.5,46-17.4,67.5C107.2,556.3,102.8,559,98.2,559z"
		/>
</g>
<g>
	<path class="st0" d="M50.8,1029.4c-6.5,0-11.7-5.3-11.7-11.7V674.5c0-28.1,7.4-55.9,21.3-80.4c3.2-5.6,10.4-7.6,16-4.4
		c5.6,3.2,7.6,10.4,4.4,16c-11.9,20.9-18.2,44.7-18.2,68.8v343.2C62.6,1024.1,57.3,1029.4,50.8,1029.4z"/>
</g>
</svg>
