<?xml version="1.0" encoding="utf-8"?>
<!-- Generator: Adobe Illustrator 23.0.1, SVG Export Plug-In . SVG Version: 6.00 Build 0)  -->
<svg version="1.1" id="Layer_1" xmlns="http://www.w3.org/2000/svg" xmlns:xlink="http://www.w3.org/1999/xlink" x="0px" y="0px"
	 viewBox="0 0 344.5 1417.3" style="enable-background:new 0 0 344.5 1417.3;" xml:space="preserve">
<style type="text/css">
	.st0{fill:#D81A3E;}
</style>
<g>
	<g>
		<path class="st0" d="M249.1,1417H95.5c-52.6,0-95.5-42.8-95.5-95.5v-647c0-34.9,9.1-69.4,26.4-99.8L40,550.9
			c13.1-23,21.3-48,24.3-74.4l47.7-352c-3-1.4-5.7-3.4-7.9-6c-4.2-5.1-5.8-11.7-4.5-18.1l8.3-41.8c-6.4-2.7-10.9-9-10.9-16.3v-9.1
			c0-18.1,14.8-32.9,32.9-32.9h84.8c18.2,0,32.9,14.8,32.9,32.9v9.1c0,7.3-4.5,13.7-10.9,16.3l8.3,41.8c1.3,6.4-0.4,13-4.5,18.1
			c-2.2,2.6-4.9,4.7-7.9,6l47.7,351.8c3,26.6,11.2,51.6,24.3,74.6l13.6,23.9c17.3,30.3,26.4,64.8,26.4,99.8v647.1
			C344.6,1374.2,301.8,1417,249.1,1417z"/>
	</g>
</g>
</svg>
