<?xml version="1.0" encoding="utf-8"?>
<!-- Generator: Adobe Illustrator 23.0.1, SVG Export Plug-In . SVG Version: 6.00 Build 0)  -->
<svg version="1.1" id="Layer_2" xmlns="http://www.w3.org/2000/svg" xmlns:xlink="http://www.w3.org/1999/xlink" x="0px" y="0px"
	 viewBox="0 0 1417.3 1173.1" style="enable-background:new 0 0 1417.3 1173.1;" xml:space="preserve">
<style type="text/css">
	.st0{fill:#FAFAFA;}
</style>
<path class="st0" d="M1289.3,709.8l126.9-528.2c2.7-11.1,0.1-22.8-7-31.7c-7.1-9-17.8-14.2-29.2-14.2h-1054L292.5,26.3
	C287.7,10.7,273.3,0,256.9,0H37.2C16.7,0,0,16.7,0,37.2s16.7,37.2,37.2,37.2h192.2l252.2,820.3c0,0-0.1,0-0.1,0
	c-76.7,0-139.1,62.4-139.1,139.1c0,76.7,62.4,139.1,139.1,139.1c76.7,0,139.1-62.4,139.1-139.1c0-23.4-5.8-45.4-16-64.8h439
	c-10.2,19.4-16,41.4-16,64.8c0,76.7,62.4,139.1,139.1,139.1c76.7,0,139.1-62.4,139.1-139.1c0-75.8-60.9-137.6-136.3-139.1
	c-0.9-0.1-1.9-0.1-2.8-0.1H559.5l-26.2-85.4l723.6-71.2C1272.6,736.6,1285.6,725.2,1289.3,709.8z M481.5,1097.5
	c-35.1,0-63.6-28.5-63.6-63.6c0-35.1,28.5-63.6,63.6-63.6c35.1,0,63.6,28.5,63.6,63.6C545.1,1069,516.6,1097.5,481.5,1097.5z
	 M1230.3,1033.9c0,35.1-28.5,63.6-63.6,63.6c-35.1,0-63.6-28.5-63.6-63.6c0-35.1,28.5-63.6,63.6-63.6
	C1201.8,970.4,1230.3,998.9,1230.3,1033.9z M510.9,736.7L349,210.2h983.8l-109.7,456.5L510.9,736.7z"/>
</svg>
