<?xml version="1.0" encoding="utf-8"?>
<!-- Generator: Adobe Illustrator 23.0.1, SVG Export Plug-In . SVG Version: 6.00 Build 0)  -->
<svg version="1.1" id="Layer_1" xmlns="http://www.w3.org/2000/svg" xmlns:xlink="http://www.w3.org/1999/xlink" x="0px" y="0px"
	 viewBox="0 0 283 358.7" style="enable-background:new 0 0 283 358.7;" xml:space="preserve">
<style type="text/css">
	.st0{fill:#00813C;}
	.st1{fill:#FCD205;}
</style>
<g id="layer1" transform="translate(-601.74407,-962.1661)">
	<g id="g3457" transform="matrix(1.25,0,0,-1.25,614.59157,1021.7911)">
		<path id="path3459" class="st0" d="M17.1-79.3l-27.4,30.4v66.2l27.4,30.4h171.6l27.4-30.4v-66.2l-27.4-30.4h-58.6l-27.2-160
			l-27.2,160H17.1z"/>
	</g>
	<g id="g3461" transform="matrix(1.25,0,0,-1.25,702.40332,1005.3574)">
		<path id="path3463" class="st1" d="M133.8-57.4l-20.7-23h-161l-20.7,23v57l20.7,23h161l20.7-23V-57.4z M115.9,28.6H-50.5
			L-74.6,1.9v-61.7l24.1-26.7h166.4l24.1,26.7V1.9C139.9,1.9,115.9,28.6,115.9,28.6z"/>
	</g>
	<g id="g3465" transform="matrix(1.25,0,0,-1.25,-0.61830571,1055.2945)">
		<g>
			<g id="g3467">
				<g id="g3473" transform="translate(517.9635,53.9062)">
					<path id="path3475" class="st1" d="M60-34.2c-4.2,0-7.1,2.2-7.5,5.2h-2.3l0.3-7h1.8c0.1,0.8,0.4,1.3,0.9,1.3
						c0.5,0,2.5-1.8,7.2-1.8c4.1,0,8.8,1.8,8.8,6.6c0,5.6-5,6.4-9.1,6.6c-1.8,0.2-5.7,0.2-5.7,2.7c0,1.6,1.8,2.7,4.8,2.7
						c3.8,0,6.8-2,7.3-4.8h2.1l-0.3,6.6h-2c0-0.5-0.1-1.1-0.5-1.1c-1.1,0-2.7,1.6-7.2,1.6c-3.8,0-8.4-2-8.4-6.4
						c0-5.2,4.8-5.7,8.6-6.1c2-0.2,6.4,0.2,6.4-2.7C65.1-32.4,63.5-34.2,60-34.2"/>
				</g>
				<g id="g3477" transform="translate(544.2568,54.1083)">
					<path id="path3479" class="st1" d="M103.7-33.9h-1.4c-1.1,0-1.6,0.2-1.6,1.4v12.7c0,0.4,0.2,0.4,0.4,0l5.9-16.5h3.4l6.1,16.5
						c0.1,0.4,0.4,0.4,0.4,0v-12.7c0-1.3-0.5-1.4-1.4-1.4h-1.6v-2.3h12.2v2.3c-1.7,0.2-4,0.4-4,2.5v10.2c0,2.1,1.7,2.1,4,2.5v2.3
						h-11.1l-5-13.8l-4.7,13.8H94v-2.3c1.6-0.4,3.9-0.2,3.9-2.3v-10.4c0-2.2-2.1-2.3-3.9-2.5v-2.3h9.7V-33.9z"/>
				</g>
				<g id="g3481" transform="translate(497.2331,42.1206)">
					<path id="path3483" class="st1" d="M25.5-53.8H22c-0.6,0-0.8,0.2-0.8,0.6v5.9h4.5c1.8,0,4.1-0.4,4.1-3
						C29.8-53.1,27.8-53.8,25.5-53.8 M21.2-39.7c0,0.5,0,0.9,0.7,0.9h3.8c2,0,3.2-1,3.2-2.8c0-2.3-1.8-3.2-3.6-3.2h-4.1
						C21.2-44.8,21.2-39.7,21.2-39.7z M29.6-45.9c2.1,0.4,4.5,1.8,4.5,4.3c0,3.6-2.9,5.2-6.3,5.2H12.1v-2.3c2.3-0.4,3.9-0.5,3.9-2.3
						v-10.5c0-0.7,0-2.1-3.9-2.4v-2.3h14.3c3.9,0,8.8,0.5,8.8,5.6C35.2-47.5,32.7-46.1,29.6-45.9"/>
				</g>
				<g id="g3485" transform="translate(539.2143,55.8576)">
					<path id="path3487" class="st1" d="M95.3-31h-2.3c-0.5-2.3-1.1-4.5-4.5-4.5h-3.8c-0.9,0-0.9,0.2-0.9,0.5v5.7h2.5
						c2.2,0,2.2-2.2,2.2-3.2h2.3v9h-2.3c0-0.7,0-3.2-2-3.2h-2.7v5.6c0,0.5,0.2,0.7,0.9,0.7h3.8c3.4,0,3.9-1.8,4.3-4.3h2.3l-0.4,6.6
						H74.7v-2.3c1.6-0.2,3.9-0.4,3.9-2.3v-10.4c0-2-1.4-2.2-3.9-2.5V-38h20.2L95.3-31z"/>
				</g>
				<g id="g3489" transform="translate(500.0819,53.9062)">
					<path id="path3491" class="st1" d="M30.2-34.2c-4.2,0-7.1,2.2-7.5,5.2h-2.3l0.3-7h1.8c0.1,0.8,0.4,1.3,0.9,1.3
						c0.5,0,2.5-1.8,7.2-1.8c4.1,0,8.8,1.8,8.8,6.6c0,5.6-5,6.4-9.1,6.6c-1.8,0.2-5.7,0.2-5.7,2.7c0,1.6,1.8,2.7,4.8,2.7
						c3.8,0,6.8-2,7.3-4.8h2.2l-0.4,6.6h-2c0-0.5-0.1-1.1-0.5-1.1c-1.1,0-2.7,1.6-7.2,1.6c-3.8,0-8.4-2-8.4-6.4
						c0-5.2,4.8-5.7,8.6-6.1c2-0.2,6.4,0.2,6.4-2.7C35.4-32.4,33.8-34.2,30.2-34.2"/>
				</g>
				<g id="g3493" transform="translate(556.9766,48.653)">
					<path id="path3495" class="st1" d="M124.8-43H104l-0.4-6.6h2.1c0.5,2.3,1.1,4.3,4.5,4.3h1.5V-58c0-2-1.2-2.1-3.8-2.5v-2.3h12.9
						v2.3c-2.5,0.4-3.9,0.5-3.9,2.5v12.7h1.5c2.3,0,3.9-0.6,4.5-4.3h2.1L124.8-43z"/>
				</g>
				<g id="g3497" transform="translate(506.495,41.9304)">
					<path id="path3499" class="st1" d="M40.9-54.1c-3.6,0-6.4,2.5-6.4,7.9c0,5.4,2.9,8.2,6.4,8.2c3.8,0,6.6-3,6.6-8.2
						C47.5-51.8,44.7-54.1,40.9-54.1 M40.9-35.7c-6.8,0-12-3.8-12-10.6c0-7.2,5.4-10.4,12-10.4c6.8,0,12.2,3.3,12.2,10.4
						C53.1-39.4,47.7-35.7,40.9-35.7"/>
				</g>
				<g id="g3501" transform="translate(535.0988,43.9495)">
					<path id="path3503" class="st1" d="M88.4-50.8h1.3c1.3,0,2.3-0.4,2.3-2c0-1.6-1.9-3.4-4.7-3.4c-3.8,0-7.2,2.5-7.2,7.9
						c0,5.2,3.2,8.2,7,8.2c3.4,0,6.1-1.4,6.6-4.8h2.3v6.6h-2.3c0-0.8-0.3-1.1-0.5-1.1c-0.9,0-3,1.6-7.2,1.6
						c-5.7,0-11.5-3.9-11.5-10.6c0-7,6.1-10.4,11.5-10.4c5,0,6.6,1.9,7.4,1.9c0.6,0,0.8-0.7,0.8-1.3h2.1v5c0,2,1.4,2.3,3.2,2.3v2.5
						H88.4V-50.8z"/>
				</g>
				<g id="g3505" transform="translate(545.1945,42.1259)">
					<path id="path3507" class="st1" d="M105.2-53.8h-3.8c-0.7,0-0.9,0.2-0.9,0.7v5.6h2.5c2.2,0,2.2-2.1,2.2-3.2h2.3v9h-2.3
						c0-0.7,0-3.2-2-3.2h-2.7v5.6c0,0.5,0.2,0.7,0.9,0.7h3.8c3.4,0,3.9-1.8,4.3-4.3h2.3l-0.4,6.6H91.4v-2.3c1.6-0.2,3.9-0.4,3.9-2.3
						v-10.4c0-2-1.4-2.1-3.9-2.5v-2.3h20.2l0.4,7h-2.3C109.1-51.7,108.6-53.8,105.2-53.8"/>
				</g>
				<g id="g3509" transform="translate(530.4437,60.7012)">
					<path id="path3511" class="st1" d="M80.7-22.9H59.9l-0.4-6.6h2.1c0.5,2.3,1.1,4.3,4.5,4.3h1.5V-38c0-2-1.2-2.1-3.8-2.5v-2.3
						h12.9v2.3c-2.5,0.4-3.9,0.5-3.9,2.5v12.7h1.5c2.3,0,3.9-0.6,4.5-4.3h2.1L80.7-22.9z"/>
				</g>
				<g id="g3513" transform="translate(509.857,55.0502)">
					<path id="path3515" class="st1" d="M46.5-32.3v3.6l5.7,7.5c0.9,1.1,1.6,1.4,3.6,1.4v2.5h-9.1v-2.5c2.4,0,2.9-0.4,1.8-1.9
						c0,0-2.5-3.2-2.9-3.6c-0.2-0.2-0.3-0.3-0.5,0c-1.2,1.7-2.9,3.8-2.9,3.8c-1.4,1.7,0.2,1.8,1.8,1.8v2.5H31.8v-2.5
						c2.2,0,2.9-0.4,3.6-1.3l5.9-7.7v-3.6c0-2.1-1.5-2.1-3.8-2.5v-2.3h12.9v2.3C48.2-34.4,46.5-34.4,46.5-32.3"/>
				</g>
				<g id="g3517" transform="translate(516.6855,42.1328)">
					<path id="path3519" class="st1" d="M57.8-53.8h-2.9c-0.7,0-0.9,0.2-0.9,0.5v12c0,1.4,0.9,2.2,3.9,2.5v2.3H44.8v-2.4
						c2.2-0.2,3.9-0.6,3.9-2.3v-10.4c0-2-1.4-2.1-3.9-2.5v-2.3h19.3l0.4,7h-2.1C61.6-52,61.2-53.8,57.8-53.8"/>
				</g>
				<g id="g3521" transform="translate(523.2692,44.0837)">
					<path id="path3523" class="st1" d="M68.8-50.6l3.2,8c0.2,0.5,0.5,0.5,0.7,0l3.1-8H68.8z M82.3-54l-6.7,15.6h-4.7L64.1-54
						c-0.5-1.1-0.9-1.7-3.9-2v-2.3h9.3v2.3h-1.6c-0.9,0-1.1,0.4-0.9,0.9l0.8,2.2h9l0.8-2.2c0.1-0.3,0.2-0.9-0.8-0.9h-1.7l0-2.3h11
						v2.5C83.4-55.7,82.7-54.7,82.3-54"/>
				</g>
			</g>
		</g>
	</g>
</g>
</svg>
