<?xml version="1.0" encoding="utf-8"?>
<!-- Generator: Adobe Illustrator 23.0.1, SVG Export Plug-In . SVG Version: 6.00 Build 0)  -->
<svg version="1.1" id="Layer_1" xmlns="http://www.w3.org/2000/svg" xmlns:xlink="http://www.w3.org/1999/xlink" x="0px" y="0px"
	 viewBox="0 0 1417.3 1417.3" style="enable-background:new 0 0 1417.3 1417.3;" xml:space="preserve">
<style type="text/css">
	.st0{fill:#FAFAFA;}
</style>
<g>
	<path class="st0" d="M982.3,435.1c-35.5-35.5-76.9-63.4-123-82.9c-47.7-20.2-98.4-30.4-150.6-30.4c-52.2,0-102.9,10.2-150.6,30.4
		c-46.1,19.5-87.4,47.4-123,82.9s-63.4,76.9-82.9,123c-20.2,47.7-30.4,98.4-30.4,150.6c0,52.2,10.2,102.9,30.4,150.6
		c19.5,46.1,47.4,87.4,82.9,123s76.9,63.4,123,82.9c47.7,20.2,98.4,30.4,150.6,30.4c52.2,0,102.9-10.2,150.6-30.4
		c46.1-19.5,87.4-47.4,123-82.9s63.4-76.9,82.9-123c20.2-47.7,30.4-98.4,30.4-150.6c0-52.2-10.2-102.9-30.4-150.6
		C1045.7,512,1017.8,470.6,982.3,435.1z M934.2,934.2c-60.2,60.2-140.3,93.4-225.5,93.4s-165.3-33.2-225.5-93.4
		S389.8,794,389.8,708.8s33.2-165.3,93.4-225.5s140.3-93.4,225.5-93.4s165.3,33.2,225.5,93.4s93.4,140.3,93.4,225.5
		S994.4,874,934.2,934.2z"/>
	<path class="st0" d="M1344.2,675.2h-81.5c-3.7-63.1-18-124.3-42.6-182.5c-28-66.1-68-125.4-118.9-176.4
		c-51-51-110.3-91-176.4-118.9C866.9,173,806,158.7,743.3,154.9V73.2c0-18.8-15.2-34-34-34s-34,15.2-34,34v81.5
		c-63.1,3.7-124.3,18-182.5,42.6c-66.1,28-125.4,68-176.4,118.9c-51,51-91,110.3-118.9,176.4c-24.5,57.9-38.8,118.8-42.6,181.5H73.2
		c-18.8,0-34,15.2-34,34s15.2,34,34,34h81.5c3.7,63.1,18,124.3,42.6,182.5c28,66.1,68,125.4,118.9,176.4c51,51,110.3,91,176.4,118.9
		c57.9,24.5,118.8,38.8,181.5,42.6v81.5c0,18.8,15.2,34,34,34s34-15.2,34-34v-81.3c63.1-3.7,124.3-18,182.5-42.6
		c66.1-28,125.4-68,176.4-118.9s91-110.3,118.9-176.4c24.5-57.9,38.8-118.8,42.6-181.5h81.5c18.8,0,34-15.2,34-34
		C1378.2,690.5,1363,675.2,1344.2,675.2z M1157.4,898.3c-24.5,58-59.6,110.1-104.4,154.8c-44.7,44.7-96.8,79.9-154.8,104.4
		c-60,25.4-123.8,38.3-189.6,38.3S579.1,1183,519,1157.6c-58-24.5-110.1-59.6-154.8-104.4c-44.7-44.7-79.9-96.8-104.4-154.8
		c-25.2-60.1-38.1-123.8-38.1-189.6s12.9-129.5,38.3-189.6c24.5-58,59.6-110.1,104.4-154.8c44.7-44.7,96.8-79.9,154.8-104.4
		c60-25.4,123.8-38.3,189.6-38.3s129.5,12.9,189.6,38.3c58,24.5,110.1,59.6,154.8,104.4c44.7,44.7,79.9,96.8,104.4,154.8
		c25.4,60,38.3,123.8,38.3,189.6S1182.8,838.2,1157.4,898.3z"/>
</g>
</svg>
